<?xml version="1.0" encoding="UTF-8" standalone="no"?>
<svg
   height="24"
   width="24"
   version="1.1"
   id="svg6"
   xmlns="http://www.w3.org/2000/svg"
   xmlns:svg="http://www.w3.org/2000/svg">
  <defs
     id="defs10" />
  <path
     id="path2"
     style="font-variation-settings:normal;opacity:0.8;isolation:auto;mix-blend-mode:normal;vector-effect:none;fill:#555761;fill-opacity:1;stroke:none;stroke-width:1;stroke-linecap:butt;stroke-linejoin:miter;stroke-miterlimit:4;stroke-dasharray:none;stroke-dashoffset:0;stroke-opacity:1;-inkscape-stroke:none;marker:none;stop-color:#000000;stop-opacity:1"
     d="M 12 5 A 1 1 0 0 0 11 6 L 11 6.0097656 C 10.080477 6.2474655 9.307453 6.827988 8.7753906 7.5859375 L 11.158203 9.9667969 C 11.354072 10.162665 11.354071 10.47796 11.158203 10.673828 L 10.357422 11.472656 C 10.161554 11.668525 9.846259 11.668525 9.6503906 11.472656 L 8.0078125 9.8300781 C 8.0053641 9.8867788 8.0000625 9.9430494 8 10 C 8 10 7.9998421 15.000094 6.3398438 15.621094 C 6.3238438 15.632094 6.3177812 15.652063 6.3007812 15.664062 A 0.726 0.726 0 0 0 6.1386719 15.839844 C 6.1206719 15.866844 6.0999375 15.888016 6.0859375 15.916016 A 0.738 0.738 0 0 0 6 16.25 C 6 16.666 6.3350004 17 6.75 17 L 17.25 17 C 17.666 17 18 16.666 18 16.25 A 0.738 0.738 0 0 0 17.914062 15.916016 C 17.900063 15.888016 17.878328 15.865844 17.861328 15.839844 A 0.725 0.725 0 0 0 17.699219 15.664062 C 17.683219 15.652063 17.677156 15.632094 17.660156 15.621094 C 16.000158 15.001094 16 10 16 10 C 15.998 8.1770018 14.764998 6.4647652 13 6.0097656 L 13 6 A 1 1 0 0 0 12 5 z M 10.066406 18 A 2 2 0 0 0 12 19.5 A 2 2 0 0 0 13.935547 18 L 10.066406 18 z " />
  <rect
     style="font-variation-settings:normal;vector-effect:none;fill:#555761;fill-opacity:1;stroke:none;stroke-width:0.992;stroke-linecap:square;stroke-linejoin:miter;stroke-miterlimit:4;stroke-dasharray:none;stroke-dashoffset:0;stroke-opacity:1;-inkscape-stroke:none;marker:none;stop-color:#000000"
     id="rect2480-1-6-2-9-1-2"
     width="1.248"
     height="7.9200001"
     x="-0.16577816"
     y="7.5240593"
     rx="0.5"
     ry="0.5"
     transform="rotate(-45)" />
</svg>
