<?xml version="1.0" encoding="UTF-8" standalone="no"?>
<svg
   height="24"
   width="24"
   version="1.1"
   id="svg6"
   xmlns="http://www.w3.org/2000/svg"
   xmlns:svg="http://www.w3.org/2000/svg">
  <defs
     id="defs10" />
  <path
     color="#bebebe"
     d="M 12,5 A 1,1 0 0 0 11,6 V 6.01 C 9.236,6.466 8.002,8.178 8,10 8,10 8,15 6.34,15.621 6.324,15.632 6.317,15.652 6.3,15.664 A 0.726,0.726 0 0 0 6.139,15.84 C 6.121,15.867 6.1,15.888 6.086,15.916 A 0.738,0.738 0 0 0 6,16.25 C 6,16.666 6.335,17 6.75,17 h 10.5 C 17.666,17 18,16.666 18,16.25 A 0.738,0.738 0 0 0 17.914,15.916 C 17.9,15.888 17.879,15.866 17.862,15.84 A 0.725,0.725 0 0 0 17.7,15.664 C 17.684,15.652 17.677,15.632 17.66,15.621 16,15.001 16,10 16,10 15.998,8.177 14.765,6.465 13,6.01 V 6 A 1,1 0 0 0 12,5 Z M 10.067,18 A 2,2 0 0 0 12,19.5 2,2 0 0 0 13.936,18 Z"
     fill="#666"
     overflow="visible"
     style="font-variation-settings:normal;opacity:0.95;isolation:auto;mix-blend-mode:normal;vector-effect:none;fill:#555761;fill-opacity:1;stroke:none;stroke-width:1;stroke-linecap:butt;stroke-linejoin:miter;stroke-miterlimit:4;stroke-dasharray:none;stroke-dashoffset:0;stroke-opacity:1;-inkscape-stroke:none;marker:none;stop-color:#000000;stop-opacity:1"
     id="path2" />
  <rect
     style="font-variation-settings:normal;vector-effect:none;fill:#555761;fill-opacity:1;stroke:none;stroke-width:0.992;stroke-linecap:square;stroke-linejoin:miter;stroke-miterlimit:4;stroke-dasharray:none;stroke-dashoffset:0;stroke-opacity:1;-inkscape-stroke:none;marker:none;stop-color:#000000"
     id="rect2480-1-6-2-9-1-2-7-0-9"
     width="1.248"
     height="1.9799999"
     x="-0.16577783"
     y="7.5240593"
     rx="0.5"
     ry="0.5"
     transform="rotate(-45)" />
</svg>
